<svg width="15" height="16" viewBox="0 0 15 16" fill="none" xmlns="http://www.w3.org/2000/svg">
<path d="M1.57178 3.92847H2.92892H13.7861" stroke="#333333" stroke-width="1.6" stroke-linecap="round" stroke-linejoin="round"/>
<path d="M4.96442 3.92863V2.57149C4.96442 2.21155 5.10741 1.86636 5.36192 1.61185C5.61644 1.35733 5.96163 1.21435 6.32157 1.21435H9.03585C9.39579 1.21435 9.74098 1.35733 9.9955 1.61185C10.25 1.86636 10.393 2.21155 10.393 2.57149V3.92863M12.4287 3.92863V13.4286C12.4287 13.7886 12.2857 14.1338 12.0312 14.3883C11.7767 14.6428 11.4315 14.7858 11.0716 14.7858H4.28585C3.92592 14.7858 3.58072 14.6428 3.32621 14.3883C3.0717 14.1338 2.92871 13.7886 2.92871 13.4286V3.92863H12.4287Z" stroke="#333333" stroke-width="1.6" stroke-linecap="round" stroke-linejoin="round"/>
</svg>
